<?xml version="1.0" encoding="utf-8" standalone="no"?>
<!DOCTYPE svg PUBLIC "-//W3C//DTD SVG 1.1//EN"
  "http://www.w3.org/Graphics/SVG/1.1/DTD/svg11.dtd">
<svg xmlns:xlink="http://www.w3.org/1999/xlink" width="805.642105pt" height="532.8pt" viewBox="0 0 805.642105 532.8" xmlns="http://www.w3.org/2000/svg" version="1.1">
 <metadata>
  <rdf:RDF xmlns:dc="http://purl.org/dc/elements/1.1/" xmlns:cc="http://creativecommons.org/ns#" xmlns:rdf="http://www.w3.org/1999/02/22-rdf-syntax-ns#">
   <cc:Work>
    <dc:type rdf:resource="http://purl.org/dc/dcmitype/StillImage"/>
    <dc:date>2026-04-28T20:13:32.112524</dc:date>
    <dc:format>image/svg+xml</dc:format>
    <dc:creator>
     <cc:Agent>
      <dc:title>Matplotlib v3.9.4, https://matplotlib.org/</dc:title>
     </cc:Agent>
    </dc:creator>
   </cc:Work>
  </rdf:RDF>
 </metadata>
 <defs>
  <style type="text/css">*{stroke-linejoin: round; stroke-linecap: butt}</style>
 </defs>
 <g id="figure_1">
  <g id="patch_1">
   <path d="M 0 532.8 
L 805.642105 532.8 
L 805.642105 0 
L 0 0 
L 0 532.8 
z
" style="fill: none"/>
  </g>
  <g id="axes_1">
   <g id="patch_2">
    <path d="M 143.621053 290.227722 
Q 143.621053 307.325669 143.621053 322.858369 
" clip-path="url(#p7727f14442)" style="fill: none; stroke: #0e2a47; stroke-width: 1.4; stroke-linecap: round"/>
    <path d="M 146.021053 318.058369 
L 143.621053 322.858369 
L 141.221053 318.058369 
" clip-path="url(#p7727f14442)" style="fill: none; stroke: #0e2a47; stroke-width: 1.4; stroke-linecap: round"/>
   </g>
   <g id="patch_3">
    <path d="M 389.178947 290.227722 
Q 389.178947 307.325669 389.178947 322.858369 
" clip-path="url(#p7727f14442)" style="fill: none; stroke: #0e2a47; stroke-width: 1.4; stroke-linecap: round"/>
    <path d="M 391.578947 318.058369 
L 389.178947 322.858369 
L 386.778947 318.058369 
" clip-path="url(#p7727f14442)" style="fill: none; stroke: #0e2a47; stroke-width: 1.4; stroke-linecap: round"/>
   </g>
   <g id="patch_4">
    <path d="M 645.650526 290.227722 
Q 645.650526 307.325669 645.650526 322.858369 
" clip-path="url(#p7727f14442)" style="fill: none; stroke: #0e2a47; stroke-width: 1.4; stroke-linecap: round"/>
    <path d="M 648.050526 318.058369 
L 645.650526 322.858369 
L 643.250526 318.058369 
" clip-path="url(#p7727f14442)" style="fill: none; stroke: #0e2a47; stroke-width: 1.4; stroke-linecap: round"/>
   </g>
   <g id="patch_5">
    <path d="M 75.410526 149.077895 
L 102.694737 149.077895 
L 102.694737 121.793684 
L 75.410526 121.793684 
z
" clip-path="url(#p7727f14442)" style="fill: #dbe9f4; stroke: #1f6fb4; stroke-linejoin: miter"/>
   </g>
   <g id="patch_6">
    <path d="M 102.694737 149.077895 
L 129.978947 149.077895 
L 129.978947 121.793684 
L 102.694737 121.793684 
z
" clip-path="url(#p7727f14442)" style="fill: #dbe9f4; stroke: #1f6fb4; stroke-linejoin: miter"/>
   </g>
   <g id="patch_7">
    <path d="M 129.978947 149.077895 
L 157.263158 149.077895 
L 157.263158 121.793684 
L 129.978947 121.793684 
z
" clip-path="url(#p7727f14442)" style="fill: #dbe9f4; stroke: #1f6fb4; stroke-linejoin: miter"/>
   </g>
   <g id="patch_8">
    <path d="M 157.263158 149.077895 
L 184.547368 149.077895 
L 184.547368 121.793684 
L 157.263158 121.793684 
z
" clip-path="url(#p7727f14442)" style="fill: #dbe9f4; stroke: #1f6fb4; stroke-linejoin: miter"/>
   </g>
   <g id="patch_9">
    <path d="M 184.547368 149.077895 
L 211.831579 149.077895 
L 211.831579 121.793684 
L 184.547368 121.793684 
z
" clip-path="url(#p7727f14442)" style="fill: #dbe9f4; stroke: #1f6fb4; stroke-linejoin: miter"/>
   </g>
   <g id="patch_10">
    <path d="M 75.410526 176.362105 
L 102.694737 176.362105 
L 102.694737 149.077895 
L 75.410526 149.077895 
z
" clip-path="url(#p7727f14442)" style="fill: #dbe9f4; stroke: #1f6fb4; stroke-linejoin: miter"/>
   </g>
   <g id="patch_11">
    <path d="M 102.694737 176.362105 
L 129.978947 176.362105 
L 129.978947 149.077895 
L 102.694737 149.077895 
z
" clip-path="url(#p7727f14442)" style="fill: #dbe9f4; stroke: #1f6fb4; stroke-linejoin: miter"/>
   </g>
   <g id="patch_12">
    <path d="M 129.978947 176.362105 
L 157.263158 176.362105 
L 157.263158 149.077895 
L 129.978947 149.077895 
z
" clip-path="url(#p7727f14442)" style="fill: #dbe9f4; stroke: #1f6fb4; stroke-linejoin: miter"/>
   </g>
   <g id="patch_13">
    <path d="M 157.263158 176.362105 
L 184.547368 176.362105 
L 184.547368 149.077895 
L 157.263158 149.077895 
z
" clip-path="url(#p7727f14442)" style="fill: #dbe9f4; stroke: #1f6fb4; stroke-linejoin: miter"/>
   </g>
   <g id="patch_14">
    <path d="M 184.547368 176.362105 
L 211.831579 176.362105 
L 211.831579 149.077895 
L 184.547368 149.077895 
z
" clip-path="url(#p7727f14442)" style="fill: #dbe9f4; stroke: #1f6fb4; stroke-linejoin: miter"/>
   </g>
   <g id="patch_15">
    <path d="M 75.410526 203.646316 
L 102.694737 203.646316 
L 102.694737 176.362105 
L 75.410526 176.362105 
z
" clip-path="url(#p7727f14442)" style="fill: #dbe9f4; stroke: #1f6fb4; stroke-linejoin: miter"/>
   </g>
   <g id="patch_16">
    <path d="M 102.694737 203.646316 
L 129.978947 203.646316 
L 129.978947 176.362105 
L 102.694737 176.362105 
z
" clip-path="url(#p7727f14442)" style="fill: #dbe9f4; stroke: #1f6fb4; stroke-linejoin: miter"/>
   </g>
   <g id="patch_17">
    <path d="M 129.978947 203.646316 
L 157.263158 203.646316 
L 157.263158 176.362105 
L 129.978947 176.362105 
z
" clip-path="url(#p7727f14442)" style="fill: #dbe9f4; stroke: #1f6fb4; stroke-linejoin: miter"/>
   </g>
   <g id="patch_18">
    <path d="M 157.263158 203.646316 
L 184.547368 203.646316 
L 184.547368 176.362105 
L 157.263158 176.362105 
z
" clip-path="url(#p7727f14442)" style="fill: #dbe9f4; stroke: #1f6fb4; stroke-linejoin: miter"/>
   </g>
   <g id="patch_19">
    <path d="M 184.547368 203.646316 
L 211.831579 203.646316 
L 211.831579 176.362105 
L 184.547368 176.362105 
z
" clip-path="url(#p7727f14442)" style="fill: #dbe9f4; stroke: #1f6fb4; stroke-linejoin: miter"/>
   </g>
   <g id="patch_20">
    <path d="M 75.410526 230.930526 
L 102.694737 230.930526 
L 102.694737 203.646316 
L 75.410526 203.646316 
z
" clip-path="url(#p7727f14442)" style="fill: #dbe9f4; stroke: #1f6fb4; stroke-linejoin: miter"/>
   </g>
   <g id="patch_21">
    <path d="M 102.694737 230.930526 
L 129.978947 230.930526 
L 129.978947 203.646316 
L 102.694737 203.646316 
z
" clip-path="url(#p7727f14442)" style="fill: #dbe9f4; stroke: #1f6fb4; stroke-linejoin: miter"/>
   </g>
   <g id="patch_22">
    <path d="M 129.978947 230.930526 
L 157.263158 230.930526 
L 157.263158 203.646316 
L 129.978947 203.646316 
z
" clip-path="url(#p7727f14442)" style="fill: #dbe9f4; stroke: #1f6fb4; stroke-linejoin: miter"/>
   </g>
   <g id="patch_23">
    <path d="M 157.263158 230.930526 
L 184.547368 230.930526 
L 184.547368 203.646316 
L 157.263158 203.646316 
z
" clip-path="url(#p7727f14442)" style="fill: #dbe9f4; stroke: #1f6fb4; stroke-linejoin: miter"/>
   </g>
   <g id="patch_24">
    <path d="M 184.547368 230.930526 
L 211.831579 230.930526 
L 211.831579 203.646316 
L 184.547368 203.646316 
z
" clip-path="url(#p7727f14442)" style="fill: #dbe9f4; stroke: #1f6fb4; stroke-linejoin: miter"/>
   </g>
   <g id="patch_25">
    <path d="M 75.410526 258.214737 
L 102.694737 258.214737 
L 102.694737 230.930526 
L 75.410526 230.930526 
z
" clip-path="url(#p7727f14442)" style="fill: #dbe9f4; stroke: #1f6fb4; stroke-linejoin: miter"/>
   </g>
   <g id="patch_26">
    <path d="M 102.694737 258.214737 
L 129.978947 258.214737 
L 129.978947 230.930526 
L 102.694737 230.930526 
z
" clip-path="url(#p7727f14442)" style="fill: #dbe9f4; stroke: #1f6fb4; stroke-linejoin: miter"/>
   </g>
   <g id="patch_27">
    <path d="M 129.978947 258.214737 
L 157.263158 258.214737 
L 157.263158 230.930526 
L 129.978947 230.930526 
z
" clip-path="url(#p7727f14442)" style="fill: #dbe9f4; stroke: #1f6fb4; stroke-linejoin: miter"/>
   </g>
   <g id="patch_28">
    <path d="M 157.263158 258.214737 
L 184.547368 258.214737 
L 184.547368 230.930526 
L 157.263158 230.930526 
z
" clip-path="url(#p7727f14442)" style="fill: #dbe9f4; stroke: #1f6fb4; stroke-linejoin: miter"/>
   </g>
   <g id="patch_29">
    <path d="M 184.547368 258.214737 
L 211.831579 258.214737 
L 211.831579 230.930526 
L 184.547368 230.930526 
z
" clip-path="url(#p7727f14442)" style="fill: #dbe9f4; stroke: #1f6fb4; stroke-linejoin: miter"/>
   </g>
   <g id="patch_30">
    <path d="M 102.694737 361.894737 
L 129.978947 361.894737 
L 129.978947 334.610526 
L 102.694737 334.610526 
z
" clip-path="url(#p7727f14442)" style="fill: #fde0c4; stroke: #d55b1a; stroke-width: 0.9; stroke-linejoin: miter"/>
   </g>
   <g id="patch_31">
    <path d="M 129.978947 361.894737 
L 157.263158 361.894737 
L 157.263158 334.610526 
L 129.978947 334.610526 
z
" clip-path="url(#p7727f14442)" style="fill: #fde0c4; stroke: #d55b1a; stroke-width: 0.9; stroke-linejoin: miter"/>
   </g>
   <g id="patch_32">
    <path d="M 157.263158 361.894737 
L 184.547368 361.894737 
L 184.547368 334.610526 
L 157.263158 334.610526 
z
" clip-path="url(#p7727f14442)" style="fill: #fde0c4; stroke: #d55b1a; stroke-width: 0.9; stroke-linejoin: miter"/>
   </g>
   <g id="patch_33">
    <path d="M 102.694737 389.178947 
L 129.978947 389.178947 
L 129.978947 361.894737 
L 102.694737 361.894737 
z
" clip-path="url(#p7727f14442)" style="fill: #fde0c4; stroke: #d55b1a; stroke-width: 0.9; stroke-linejoin: miter"/>
   </g>
   <g id="patch_34">
    <path d="M 129.978947 389.178947 
L 157.263158 389.178947 
L 157.263158 361.894737 
L 129.978947 361.894737 
z
" clip-path="url(#p7727f14442)" style="fill: #fde0c4; stroke: #d55b1a; stroke-width: 0.9; stroke-linejoin: miter"/>
   </g>
   <g id="patch_35">
    <path d="M 157.263158 389.178947 
L 184.547368 389.178947 
L 184.547368 361.894737 
L 157.263158 361.894737 
z
" clip-path="url(#p7727f14442)" style="fill: #fde0c4; stroke: #d55b1a; stroke-width: 0.9; stroke-linejoin: miter"/>
   </g>
   <g id="patch_36">
    <path d="M 102.694737 416.463158 
L 129.978947 416.463158 
L 129.978947 389.178947 
L 102.694737 389.178947 
z
" clip-path="url(#p7727f14442)" style="fill: #fde0c4; stroke: #d55b1a; stroke-width: 0.9; stroke-linejoin: miter"/>
   </g>
   <g id="patch_37">
    <path d="M 129.978947 416.463158 
L 157.263158 416.463158 
L 157.263158 389.178947 
L 129.978947 389.178947 
z
" clip-path="url(#p7727f14442)" style="fill: #fde0c4; stroke: #d55b1a; stroke-width: 0.9; stroke-linejoin: miter"/>
   </g>
   <g id="patch_38">
    <path d="M 157.263158 416.463158 
L 184.547368 416.463158 
L 184.547368 389.178947 
L 157.263158 389.178947 
z
" clip-path="url(#p7727f14442)" style="fill: #fde0c4; stroke: #d55b1a; stroke-width: 0.9; stroke-linejoin: miter"/>
   </g>
   <g id="patch_39">
    <path d="M 320.968421 149.077895 
L 348.252632 149.077895 
L 348.252632 121.793684 
L 320.968421 121.793684 
z
" clip-path="url(#p7727f14442)" style="fill: #dbe9f4; stroke: #1f6fb4; stroke-linejoin: miter"/>
   </g>
   <g id="patch_40">
    <path d="M 348.252632 149.077895 
L 375.536842 149.077895 
L 375.536842 121.793684 
L 348.252632 121.793684 
z
" clip-path="url(#p7727f14442)" style="fill: #dbe9f4; stroke: #1f6fb4; stroke-linejoin: miter"/>
   </g>
   <g id="patch_41">
    <path d="M 375.536842 149.077895 
L 402.821053 149.077895 
L 402.821053 121.793684 
L 375.536842 121.793684 
z
" clip-path="url(#p7727f14442)" style="fill: #dbe9f4; stroke: #1f6fb4; stroke-linejoin: miter"/>
   </g>
   <g id="patch_42">
    <path d="M 402.821053 149.077895 
L 430.105263 149.077895 
L 430.105263 121.793684 
L 402.821053 121.793684 
z
" clip-path="url(#p7727f14442)" style="fill: #dbe9f4; stroke: #1f6fb4; stroke-linejoin: miter"/>
   </g>
   <g id="patch_43">
    <path d="M 430.105263 149.077895 
L 457.389474 149.077895 
L 457.389474 121.793684 
L 430.105263 121.793684 
z
" clip-path="url(#p7727f14442)" style="fill: #dbe9f4; stroke: #1f6fb4; stroke-linejoin: miter"/>
   </g>
   <g id="patch_44">
    <path d="M 320.968421 176.362105 
L 348.252632 176.362105 
L 348.252632 149.077895 
L 320.968421 149.077895 
z
" clip-path="url(#p7727f14442)" style="fill: #dbe9f4; stroke: #1f6fb4; stroke-linejoin: miter"/>
   </g>
   <g id="patch_45">
    <path d="M 348.252632 176.362105 
L 375.536842 176.362105 
L 375.536842 149.077895 
L 348.252632 149.077895 
z
" clip-path="url(#p7727f14442)" style="fill: #dbe9f4; stroke: #1f6fb4; stroke-linejoin: miter"/>
   </g>
   <g id="patch_46">
    <path d="M 375.536842 176.362105 
L 402.821053 176.362105 
L 402.821053 149.077895 
L 375.536842 149.077895 
z
" clip-path="url(#p7727f14442)" style="fill: #dbe9f4; stroke: #1f6fb4; stroke-linejoin: miter"/>
   </g>
   <g id="patch_47">
    <path d="M 402.821053 176.362105 
L 430.105263 176.362105 
L 430.105263 149.077895 
L 402.821053 149.077895 
z
" clip-path="url(#p7727f14442)" style="fill: #dbe9f4; stroke: #1f6fb4; stroke-linejoin: miter"/>
   </g>
   <g id="patch_48">
    <path d="M 430.105263 176.362105 
L 457.389474 176.362105 
L 457.389474 149.077895 
L 430.105263 149.077895 
z
" clip-path="url(#p7727f14442)" style="fill: #dbe9f4; stroke: #1f6fb4; stroke-linejoin: miter"/>
   </g>
   <g id="patch_49">
    <path d="M 320.968421 203.646316 
L 348.252632 203.646316 
L 348.252632 176.362105 
L 320.968421 176.362105 
z
" clip-path="url(#p7727f14442)" style="fill: #dbe9f4; stroke: #1f6fb4; stroke-linejoin: miter"/>
   </g>
   <g id="patch_50">
    <path d="M 348.252632 203.646316 
L 375.536842 203.646316 
L 375.536842 176.362105 
L 348.252632 176.362105 
z
" clip-path="url(#p7727f14442)" style="fill: #dbe9f4; stroke: #1f6fb4; stroke-linejoin: miter"/>
   </g>
   <g id="patch_51">
    <path d="M 375.536842 203.646316 
L 402.821053 203.646316 
L 402.821053 176.362105 
L 375.536842 176.362105 
z
" clip-path="url(#p7727f14442)" style="fill: #dbe9f4; stroke: #1f6fb4; stroke-linejoin: miter"/>
   </g>
   <g id="patch_52">
    <path d="M 402.821053 203.646316 
L 430.105263 203.646316 
L 430.105263 176.362105 
L 402.821053 176.362105 
z
" clip-path="url(#p7727f14442)" style="fill: #dbe9f4; stroke: #1f6fb4; stroke-linejoin: miter"/>
   </g>
   <g id="patch_53">
    <path d="M 430.105263 203.646316 
L 457.389474 203.646316 
L 457.389474 176.362105 
L 430.105263 176.362105 
z
" clip-path="url(#p7727f14442)" style="fill: #dbe9f4; stroke: #1f6fb4; stroke-linejoin: miter"/>
   </g>
   <g id="patch_54">
    <path d="M 320.968421 230.930526 
L 348.252632 230.930526 
L 348.252632 203.646316 
L 320.968421 203.646316 
z
" clip-path="url(#p7727f14442)" style="fill: #dbe9f4; stroke: #1f6fb4; stroke-linejoin: miter"/>
   </g>
   <g id="patch_55">
    <path d="M 348.252632 230.930526 
L 375.536842 230.930526 
L 375.536842 203.646316 
L 348.252632 203.646316 
z
" clip-path="url(#p7727f14442)" style="fill: #dbe9f4; stroke: #1f6fb4; stroke-linejoin: miter"/>
   </g>
   <g id="patch_56">
    <path d="M 375.536842 230.930526 
L 402.821053 230.930526 
L 402.821053 203.646316 
L 375.536842 203.646316 
z
" clip-path="url(#p7727f14442)" style="fill: #dbe9f4; stroke: #1f6fb4; stroke-linejoin: miter"/>
   </g>
   <g id="patch_57">
    <path d="M 402.821053 230.930526 
L 430.105263 230.930526 
L 430.105263 203.646316 
L 402.821053 203.646316 
z
" clip-path="url(#p7727f14442)" style="fill: #dbe9f4; stroke: #1f6fb4; stroke-linejoin: miter"/>
   </g>
   <g id="patch_58">
    <path d="M 430.105263 230.930526 
L 457.389474 230.930526 
L 457.389474 203.646316 
L 430.105263 203.646316 
z
" clip-path="url(#p7727f14442)" style="fill: #dbe9f4; stroke: #1f6fb4; stroke-linejoin: miter"/>
   </g>
   <g id="patch_59">
    <path d="M 320.968421 258.214737 
L 348.252632 258.214737 
L 348.252632 230.930526 
L 320.968421 230.930526 
z
" clip-path="url(#p7727f14442)" style="fill: #dbe9f4; stroke: #1f6fb4; stroke-linejoin: miter"/>
   </g>
   <g id="patch_60">
    <path d="M 348.252632 258.214737 
L 375.536842 258.214737 
L 375.536842 230.930526 
L 348.252632 230.930526 
z
" clip-path="url(#p7727f14442)" style="fill: #dbe9f4; stroke: #1f6fb4; stroke-linejoin: miter"/>
   </g>
   <g id="patch_61">
    <path d="M 375.536842 258.214737 
L 402.821053 258.214737 
L 402.821053 230.930526 
L 375.536842 230.930526 
z
" clip-path="url(#p7727f14442)" style="fill: #dbe9f4; stroke: #1f6fb4; stroke-linejoin: miter"/>
   </g>
   <g id="patch_62">
    <path d="M 402.821053 258.214737 
L 430.105263 258.214737 
L 430.105263 230.930526 
L 402.821053 230.930526 
z
" clip-path="url(#p7727f14442)" style="fill: #dbe9f4; stroke: #1f6fb4; stroke-linejoin: miter"/>
   </g>
   <g id="patch_63">
    <path d="M 430.105263 258.214737 
L 457.389474 258.214737 
L 457.389474 230.930526 
L 430.105263 230.930526 
z
" clip-path="url(#p7727f14442)" style="fill: #dbe9f4; stroke: #1f6fb4; stroke-linejoin: miter"/>
   </g>
   <g id="patch_64">
    <path d="M 361.894737 361.894737 
L 389.178947 361.894737 
L 389.178947 334.610526 
L 361.894737 334.610526 
z
" clip-path="url(#p7727f14442)" style="fill: #fde0c4; stroke: #d55b1a; stroke-width: 0.9; stroke-linejoin: miter"/>
   </g>
   <g id="patch_65">
    <path d="M 389.178947 361.894737 
L 416.463158 361.894737 
L 416.463158 334.610526 
L 389.178947 334.610526 
z
" clip-path="url(#p7727f14442)" style="fill: #fde0c4; stroke: #d55b1a; stroke-width: 0.9; stroke-linejoin: miter"/>
   </g>
   <g id="patch_66">
    <path d="M 361.894737 389.178947 
L 389.178947 389.178947 
L 389.178947 361.894737 
L 361.894737 361.894737 
z
" clip-path="url(#p7727f14442)" style="fill: #fde0c4; stroke: #d55b1a; stroke-width: 0.9; stroke-linejoin: miter"/>
   </g>
   <g id="patch_67">
    <path d="M 389.178947 389.178947 
L 416.463158 389.178947 
L 416.463158 361.894737 
L 389.178947 361.894737 
z
" clip-path="url(#p7727f14442)" style="fill: #fde0c4; stroke: #d55b1a; stroke-width: 0.9; stroke-linejoin: miter"/>
   </g>
   <g id="patch_68">
    <path d="M 550.155789 94.509474 
L 577.44 94.509474 
L 577.44 67.225263 
L 550.155789 67.225263 
z
" clip-path="url(#p7727f14442)" style="fill: #fadbd8; stroke: #c0392b; stroke-linejoin: miter"/>
   </g>
   <g id="patch_69">
    <path d="M 577.44 94.509474 
L 604.724211 94.509474 
L 604.724211 67.225263 
L 577.44 67.225263 
z
" clip-path="url(#p7727f14442)" style="fill: #fadbd8; stroke: #c0392b; stroke-linejoin: miter"/>
   </g>
   <g id="patch_70">
    <path d="M 604.724211 94.509474 
L 632.008421 94.509474 
L 632.008421 67.225263 
L 604.724211 67.225263 
z
" clip-path="url(#p7727f14442)" style="fill: #fadbd8; stroke: #c0392b; stroke-linejoin: miter"/>
   </g>
   <g id="patch_71">
    <path d="M 632.008421 94.509474 
L 659.292632 94.509474 
L 659.292632 67.225263 
L 632.008421 67.225263 
z
" clip-path="url(#p7727f14442)" style="fill: #fadbd8; stroke: #c0392b; stroke-linejoin: miter"/>
   </g>
   <g id="patch_72">
    <path d="M 659.292632 94.509474 
L 686.576842 94.509474 
L 686.576842 67.225263 
L 659.292632 67.225263 
z
" clip-path="url(#p7727f14442)" style="fill: #fadbd8; stroke: #c0392b; stroke-linejoin: miter"/>
   </g>
   <g id="patch_73">
    <path d="M 686.576842 94.509474 
L 713.861053 94.509474 
L 713.861053 67.225263 
L 686.576842 67.225263 
z
" clip-path="url(#p7727f14442)" style="fill: #fadbd8; stroke: #c0392b; stroke-linejoin: miter"/>
   </g>
   <g id="patch_74">
    <path d="M 713.861053 94.509474 
L 741.145263 94.509474 
L 741.145263 67.225263 
L 713.861053 67.225263 
z
" clip-path="url(#p7727f14442)" style="fill: #fadbd8; stroke: #c0392b; stroke-linejoin: miter"/>
   </g>
   <g id="patch_75">
    <path d="M 550.155789 121.793684 
L 577.44 121.793684 
L 577.44 94.509474 
L 550.155789 94.509474 
z
" clip-path="url(#p7727f14442)" style="fill: #fadbd8; stroke: #c0392b; stroke-linejoin: miter"/>
   </g>
   <g id="patch_76">
    <path d="M 577.44 121.793684 
L 604.724211 121.793684 
L 604.724211 94.509474 
L 577.44 94.509474 
z
" clip-path="url(#p7727f14442)" style="fill: #dbe9f4; stroke: #1f6fb4; stroke-linejoin: miter"/>
   </g>
   <g id="patch_77">
    <path d="M 604.724211 121.793684 
L 632.008421 121.793684 
L 632.008421 94.509474 
L 604.724211 94.509474 
z
" clip-path="url(#p7727f14442)" style="fill: #dbe9f4; stroke: #1f6fb4; stroke-linejoin: miter"/>
   </g>
   <g id="patch_78">
    <path d="M 632.008421 121.793684 
L 659.292632 121.793684 
L 659.292632 94.509474 
L 632.008421 94.509474 
z
" clip-path="url(#p7727f14442)" style="fill: #dbe9f4; stroke: #1f6fb4; stroke-linejoin: miter"/>
   </g>
   <g id="patch_79">
    <path d="M 659.292632 121.793684 
L 686.576842 121.793684 
L 686.576842 94.509474 
L 659.292632 94.509474 
z
" clip-path="url(#p7727f14442)" style="fill: #dbe9f4; stroke: #1f6fb4; stroke-linejoin: miter"/>
   </g>
   <g id="patch_80">
    <path d="M 686.576842 121.793684 
L 713.861053 121.793684 
L 713.861053 94.509474 
L 686.576842 94.509474 
z
" clip-path="url(#p7727f14442)" style="fill: #dbe9f4; stroke: #1f6fb4; stroke-linejoin: miter"/>
   </g>
   <g id="patch_81">
    <path d="M 713.861053 121.793684 
L 741.145263 121.793684 
L 741.145263 94.509474 
L 713.861053 94.509474 
z
" clip-path="url(#p7727f14442)" style="fill: #fadbd8; stroke: #c0392b; stroke-linejoin: miter"/>
   </g>
   <g id="patch_82">
    <path d="M 550.155789 149.077895 
L 577.44 149.077895 
L 577.44 121.793684 
L 550.155789 121.793684 
z
" clip-path="url(#p7727f14442)" style="fill: #fadbd8; stroke: #c0392b; stroke-linejoin: miter"/>
   </g>
   <g id="patch_83">
    <path d="M 577.44 149.077895 
L 604.724211 149.077895 
L 604.724211 121.793684 
L 577.44 121.793684 
z
" clip-path="url(#p7727f14442)" style="fill: #dbe9f4; stroke: #1f6fb4; stroke-linejoin: miter"/>
   </g>
   <g id="patch_84">
    <path d="M 604.724211 149.077895 
L 632.008421 149.077895 
L 632.008421 121.793684 
L 604.724211 121.793684 
z
" clip-path="url(#p7727f14442)" style="fill: #dbe9f4; stroke: #1f6fb4; stroke-linejoin: miter"/>
   </g>
   <g id="patch_85">
    <path d="M 632.008421 149.077895 
L 659.292632 149.077895 
L 659.292632 121.793684 
L 632.008421 121.793684 
z
" clip-path="url(#p7727f14442)" style="fill: #dbe9f4; stroke: #1f6fb4; stroke-linejoin: miter"/>
   </g>
   <g id="patch_86">
    <path d="M 659.292632 149.077895 
L 686.576842 149.077895 
L 686.576842 121.793684 
L 659.292632 121.793684 
z
" clip-path="url(#p7727f14442)" style="fill: #dbe9f4; stroke: #1f6fb4; stroke-linejoin: miter"/>
   </g>
   <g id="patch_87">
    <path d="M 686.576842 149.077895 
L 713.861053 149.077895 
L 713.861053 121.793684 
L 686.576842 121.793684 
z
" clip-path="url(#p7727f14442)" style="fill: #dbe9f4; stroke: #1f6fb4; stroke-linejoin: miter"/>
   </g>
   <g id="patch_88">
    <path d="M 713.861053 149.077895 
L 741.145263 149.077895 
L 741.145263 121.793684 
L 713.861053 121.793684 
z
" clip-path="url(#p7727f14442)" style="fill: #fadbd8; stroke: #c0392b; stroke-linejoin: miter"/>
   </g>
   <g id="patch_89">
    <path d="M 550.155789 176.362105 
L 577.44 176.362105 
L 577.44 149.077895 
L 550.155789 149.077895 
z
" clip-path="url(#p7727f14442)" style="fill: #fadbd8; stroke: #c0392b; stroke-linejoin: miter"/>
   </g>
   <g id="patch_90">
    <path d="M 577.44 176.362105 
L 604.724211 176.362105 
L 604.724211 149.077895 
L 577.44 149.077895 
z
" clip-path="url(#p7727f14442)" style="fill: #dbe9f4; stroke: #1f6fb4; stroke-linejoin: miter"/>
   </g>
   <g id="patch_91">
    <path d="M 604.724211 176.362105 
L 632.008421 176.362105 
L 632.008421 149.077895 
L 604.724211 149.077895 
z
" clip-path="url(#p7727f14442)" style="fill: #dbe9f4; stroke: #1f6fb4; stroke-linejoin: miter"/>
   </g>
   <g id="patch_92">
    <path d="M 632.008421 176.362105 
L 659.292632 176.362105 
L 659.292632 149.077895 
L 632.008421 149.077895 
z
" clip-path="url(#p7727f14442)" style="fill: #dbe9f4; stroke: #1f6fb4; stroke-linejoin: miter"/>
   </g>
   <g id="patch_93">
    <path d="M 659.292632 176.362105 
L 686.576842 176.362105 
L 686.576842 149.077895 
L 659.292632 149.077895 
z
" clip-path="url(#p7727f14442)" style="fill: #dbe9f4; stroke: #1f6fb4; stroke-linejoin: miter"/>
   </g>
   <g id="patch_94">
    <path d="M 686.576842 176.362105 
L 713.861053 176.362105 
L 713.861053 149.077895 
L 686.576842 149.077895 
z
" clip-path="url(#p7727f14442)" style="fill: #dbe9f4; stroke: #1f6fb4; stroke-linejoin: miter"/>
   </g>
   <g id="patch_95">
    <path d="M 713.861053 176.362105 
L 741.145263 176.362105 
L 741.145263 149.077895 
L 713.861053 149.077895 
z
" clip-path="url(#p7727f14442)" style="fill: #fadbd8; stroke: #c0392b; stroke-linejoin: miter"/>
   </g>
   <g id="patch_96">
    <path d="M 550.155789 203.646316 
L 577.44 203.646316 
L 577.44 176.362105 
L 550.155789 176.362105 
z
" clip-path="url(#p7727f14442)" style="fill: #fadbd8; stroke: #c0392b; stroke-linejoin: miter"/>
   </g>
   <g id="patch_97">
    <path d="M 577.44 203.646316 
L 604.724211 203.646316 
L 604.724211 176.362105 
L 577.44 176.362105 
z
" clip-path="url(#p7727f14442)" style="fill: #dbe9f4; stroke: #1f6fb4; stroke-linejoin: miter"/>
   </g>
   <g id="patch_98">
    <path d="M 604.724211 203.646316 
L 632.008421 203.646316 
L 632.008421 176.362105 
L 604.724211 176.362105 
z
" clip-path="url(#p7727f14442)" style="fill: #dbe9f4; stroke: #1f6fb4; stroke-linejoin: miter"/>
   </g>
   <g id="patch_99">
    <path d="M 632.008421 203.646316 
L 659.292632 203.646316 
L 659.292632 176.362105 
L 632.008421 176.362105 
z
" clip-path="url(#p7727f14442)" style="fill: #dbe9f4; stroke: #1f6fb4; stroke-linejoin: miter"/>
   </g>
   <g id="patch_100">
    <path d="M 659.292632 203.646316 
L 686.576842 203.646316 
L 686.576842 176.362105 
L 659.292632 176.362105 
z
" clip-path="url(#p7727f14442)" style="fill: #dbe9f4; stroke: #1f6fb4; stroke-linejoin: miter"/>
   </g>
   <g id="patch_101">
    <path d="M 686.576842 203.646316 
L 713.861053 203.646316 
L 713.861053 176.362105 
L 686.576842 176.362105 
z
" clip-path="url(#p7727f14442)" style="fill: #dbe9f4; stroke: #1f6fb4; stroke-linejoin: miter"/>
   </g>
   <g id="patch_102">
    <path d="M 713.861053 203.646316 
L 741.145263 203.646316 
L 741.145263 176.362105 
L 713.861053 176.362105 
z
" clip-path="url(#p7727f14442)" style="fill: #fadbd8; stroke: #c0392b; stroke-linejoin: miter"/>
   </g>
   <g id="patch_103">
    <path d="M 550.155789 230.930526 
L 577.44 230.930526 
L 577.44 203.646316 
L 550.155789 203.646316 
z
" clip-path="url(#p7727f14442)" style="fill: #fadbd8; stroke: #c0392b; stroke-linejoin: miter"/>
   </g>
   <g id="patch_104">
    <path d="M 577.44 230.930526 
L 604.724211 230.930526 
L 604.724211 203.646316 
L 577.44 203.646316 
z
" clip-path="url(#p7727f14442)" style="fill: #dbe9f4; stroke: #1f6fb4; stroke-linejoin: miter"/>
   </g>
   <g id="patch_105">
    <path d="M 604.724211 230.930526 
L 632.008421 230.930526 
L 632.008421 203.646316 
L 604.724211 203.646316 
z
" clip-path="url(#p7727f14442)" style="fill: #dbe9f4; stroke: #1f6fb4; stroke-linejoin: miter"/>
   </g>
   <g id="patch_106">
    <path d="M 632.008421 230.930526 
L 659.292632 230.930526 
L 659.292632 203.646316 
L 632.008421 203.646316 
z
" clip-path="url(#p7727f14442)" style="fill: #dbe9f4; stroke: #1f6fb4; stroke-linejoin: miter"/>
   </g>
   <g id="patch_107">
    <path d="M 659.292632 230.930526 
L 686.576842 230.930526 
L 686.576842 203.646316 
L 659.292632 203.646316 
z
" clip-path="url(#p7727f14442)" style="fill: #dbe9f4; stroke: #1f6fb4; stroke-linejoin: miter"/>
   </g>
   <g id="patch_108">
    <path d="M 686.576842 230.930526 
L 713.861053 230.930526 
L 713.861053 203.646316 
L 686.576842 203.646316 
z
" clip-path="url(#p7727f14442)" style="fill: #dbe9f4; stroke: #1f6fb4; stroke-linejoin: miter"/>
   </g>
   <g id="patch_109">
    <path d="M 713.861053 230.930526 
L 741.145263 230.930526 
L 741.145263 203.646316 
L 713.861053 203.646316 
z
" clip-path="url(#p7727f14442)" style="fill: #fadbd8; stroke: #c0392b; stroke-linejoin: miter"/>
   </g>
   <g id="patch_110">
    <path d="M 550.155789 258.214737 
L 577.44 258.214737 
L 577.44 230.930526 
L 550.155789 230.930526 
z
" clip-path="url(#p7727f14442)" style="fill: #fadbd8; stroke: #c0392b; stroke-linejoin: miter"/>
   </g>
   <g id="patch_111">
    <path d="M 577.44 258.214737 
L 604.724211 258.214737 
L 604.724211 230.930526 
L 577.44 230.930526 
z
" clip-path="url(#p7727f14442)" style="fill: #fadbd8; stroke: #c0392b; stroke-linejoin: miter"/>
   </g>
   <g id="patch_112">
    <path d="M 604.724211 258.214737 
L 632.008421 258.214737 
L 632.008421 230.930526 
L 604.724211 230.930526 
z
" clip-path="url(#p7727f14442)" style="fill: #fadbd8; stroke: #c0392b; stroke-linejoin: miter"/>
   </g>
   <g id="patch_113">
    <path d="M 632.008421 258.214737 
L 659.292632 258.214737 
L 659.292632 230.930526 
L 632.008421 230.930526 
z
" clip-path="url(#p7727f14442)" style="fill: #fadbd8; stroke: #c0392b; stroke-linejoin: miter"/>
   </g>
   <g id="patch_114">
    <path d="M 659.292632 258.214737 
L 686.576842 258.214737 
L 686.576842 230.930526 
L 659.292632 230.930526 
z
" clip-path="url(#p7727f14442)" style="fill: #fadbd8; stroke: #c0392b; stroke-linejoin: miter"/>
   </g>
   <g id="patch_115">
    <path d="M 686.576842 258.214737 
L 713.861053 258.214737 
L 713.861053 230.930526 
L 686.576842 230.930526 
z
" clip-path="url(#p7727f14442)" style="fill: #fadbd8; stroke: #c0392b; stroke-linejoin: miter"/>
   </g>
   <g id="patch_116">
    <path d="M 713.861053 258.214737 
L 741.145263 258.214737 
L 741.145263 230.930526 
L 713.861053 230.930526 
z
" clip-path="url(#p7727f14442)" style="fill: #fadbd8; stroke: #c0392b; stroke-linejoin: miter"/>
   </g>
   <g id="patch_117">
    <path d="M 577.44 361.894737 
L 604.724211 361.894737 
L 604.724211 334.610526 
L 577.44 334.610526 
z
" clip-path="url(#p7727f14442)" style="fill: #fde0c4; stroke: #d55b1a; stroke-width: 0.9; stroke-linejoin: miter"/>
   </g>
   <g id="patch_118">
    <path d="M 604.724211 361.894737 
L 632.008421 361.894737 
L 632.008421 334.610526 
L 604.724211 334.610526 
z
" clip-path="url(#p7727f14442)" style="fill: #fde0c4; stroke: #d55b1a; stroke-width: 0.9; stroke-linejoin: miter"/>
   </g>
   <g id="patch_119">
    <path d="M 632.008421 361.894737 
L 659.292632 361.894737 
L 659.292632 334.610526 
L 632.008421 334.610526 
z
" clip-path="url(#p7727f14442)" style="fill: #fde0c4; stroke: #d55b1a; stroke-width: 0.9; stroke-linejoin: miter"/>
   </g>
   <g id="patch_120">
    <path d="M 659.292632 361.894737 
L 686.576842 361.894737 
L 686.576842 334.610526 
L 659.292632 334.610526 
z
" clip-path="url(#p7727f14442)" style="fill: #fde0c4; stroke: #d55b1a; stroke-width: 0.9; stroke-linejoin: miter"/>
   </g>
   <g id="patch_121">
    <path d="M 686.576842 361.894737 
L 713.861053 361.894737 
L 713.861053 334.610526 
L 686.576842 334.610526 
z
" clip-path="url(#p7727f14442)" style="fill: #fde0c4; stroke: #d55b1a; stroke-width: 0.9; stroke-linejoin: miter"/>
   </g>
   <g id="patch_122">
    <path d="M 577.44 389.178947 
L 604.724211 389.178947 
L 604.724211 361.894737 
L 577.44 361.894737 
z
" clip-path="url(#p7727f14442)" style="fill: #fde0c4; stroke: #d55b1a; stroke-width: 0.9; stroke-linejoin: miter"/>
   </g>
   <g id="patch_123">
    <path d="M 604.724211 389.178947 
L 632.008421 389.178947 
L 632.008421 361.894737 
L 604.724211 361.894737 
z
" clip-path="url(#p7727f14442)" style="fill: #fde0c4; stroke: #d55b1a; stroke-width: 0.9; stroke-linejoin: miter"/>
   </g>
   <g id="patch_124">
    <path d="M 632.008421 389.178947 
L 659.292632 389.178947 
L 659.292632 361.894737 
L 632.008421 361.894737 
z
" clip-path="url(#p7727f14442)" style="fill: #fde0c4; stroke: #d55b1a; stroke-width: 0.9; stroke-linejoin: miter"/>
   </g>
   <g id="patch_125">
    <path d="M 659.292632 389.178947 
L 686.576842 389.178947 
L 686.576842 361.894737 
L 659.292632 361.894737 
z
" clip-path="url(#p7727f14442)" style="fill: #fde0c4; stroke: #d55b1a; stroke-width: 0.9; stroke-linejoin: miter"/>
   </g>
   <g id="patch_126">
    <path d="M 686.576842 389.178947 
L 713.861053 389.178947 
L 713.861053 361.894737 
L 686.576842 361.894737 
z
" clip-path="url(#p7727f14442)" style="fill: #fde0c4; stroke: #d55b1a; stroke-width: 0.9; stroke-linejoin: miter"/>
   </g>
   <g id="patch_127">
    <path d="M 577.44 416.463158 
L 604.724211 416.463158 
L 604.724211 389.178947 
L 577.44 389.178947 
z
" clip-path="url(#p7727f14442)" style="fill: #fde0c4; stroke: #d55b1a; stroke-width: 0.9; stroke-linejoin: miter"/>
   </g>
   <g id="patch_128">
    <path d="M 604.724211 416.463158 
L 632.008421 416.463158 
L 632.008421 389.178947 
L 604.724211 389.178947 
z
" clip-path="url(#p7727f14442)" style="fill: #fde0c4; stroke: #d55b1a; stroke-width: 0.9; stroke-linejoin: miter"/>
   </g>
   <g id="patch_129">
    <path d="M 632.008421 416.463158 
L 659.292632 416.463158 
L 659.292632 389.178947 
L 632.008421 389.178947 
z
" clip-path="url(#p7727f14442)" style="fill: #fde0c4; stroke: #d55b1a; stroke-width: 0.9; stroke-linejoin: miter"/>
   </g>
   <g id="patch_130">
    <path d="M 659.292632 416.463158 
L 686.576842 416.463158 
L 686.576842 389.178947 
L 659.292632 389.178947 
z
" clip-path="url(#p7727f14442)" style="fill: #fde0c4; stroke: #d55b1a; stroke-width: 0.9; stroke-linejoin: miter"/>
   </g>
   <g id="patch_131">
    <path d="M 686.576842 416.463158 
L 713.861053 416.463158 
L 713.861053 389.178947 
L 686.576842 389.178947 
z
" clip-path="url(#p7727f14442)" style="fill: #fde0c4; stroke: #d55b1a; stroke-width: 0.9; stroke-linejoin: miter"/>
   </g>
   <g id="patch_132">
    <path d="M 577.44 443.747368 
L 604.724211 443.747368 
L 604.724211 416.463158 
L 577.44 416.463158 
z
" clip-path="url(#p7727f14442)" style="fill: #fde0c4; stroke: #d55b1a; stroke-width: 0.9; stroke-linejoin: miter"/>
   </g>
   <g id="patch_133">
    <path d="M 604.724211 443.747368 
L 632.008421 443.747368 
L 632.008421 416.463158 
L 604.724211 416.463158 
z
" clip-path="url(#p7727f14442)" style="fill: #fde0c4; stroke: #d55b1a; stroke-width: 0.9; stroke-linejoin: miter"/>
   </g>
   <g id="patch_134">
    <path d="M 632.008421 443.747368 
L 659.292632 443.747368 
L 659.292632 416.463158 
L 632.008421 416.463158 
z
" clip-path="url(#p7727f14442)" style="fill: #fde0c4; stroke: #d55b1a; stroke-width: 0.9; stroke-linejoin: miter"/>
   </g>
   <g id="patch_135">
    <path d="M 659.292632 443.747368 
L 686.576842 443.747368 
L 686.576842 416.463158 
L 659.292632 416.463158 
z
" clip-path="url(#p7727f14442)" style="fill: #fde0c4; stroke: #d55b1a; stroke-width: 0.9; stroke-linejoin: miter"/>
   </g>
   <g id="patch_136">
    <path d="M 686.576842 443.747368 
L 713.861053 443.747368 
L 713.861053 416.463158 
L 686.576842 416.463158 
z
" clip-path="url(#p7727f14442)" style="fill: #fde0c4; stroke: #d55b1a; stroke-width: 0.9; stroke-linejoin: miter"/>
   </g>
   <g id="patch_137">
    <path d="M 577.44 471.031579 
L 604.724211 471.031579 
L 604.724211 443.747368 
L 577.44 443.747368 
z
" clip-path="url(#p7727f14442)" style="fill: #fde0c4; stroke: #d55b1a; stroke-width: 0.9; stroke-linejoin: miter"/>
   </g>
   <g id="patch_138">
    <path d="M 604.724211 471.031579 
L 632.008421 471.031579 
L 632.008421 443.747368 
L 604.724211 443.747368 
z
" clip-path="url(#p7727f14442)" style="fill: #fde0c4; stroke: #d55b1a; stroke-width: 0.9; stroke-linejoin: miter"/>
   </g>
   <g id="patch_139">
    <path d="M 632.008421 471.031579 
L 659.292632 471.031579 
L 659.292632 443.747368 
L 632.008421 443.747368 
z
" clip-path="url(#p7727f14442)" style="fill: #fde0c4; stroke: #d55b1a; stroke-width: 0.9; stroke-linejoin: miter"/>
   </g>
   <g id="patch_140">
    <path d="M 659.292632 471.031579 
L 686.576842 471.031579 
L 686.576842 443.747368 
L 659.292632 443.747368 
z
" clip-path="url(#p7727f14442)" style="fill: #fde0c4; stroke: #d55b1a; stroke-width: 0.9; stroke-linejoin: miter"/>
   </g>
   <g id="patch_141">
    <path d="M 686.576842 471.031579 
L 713.861053 471.031579 
L 713.861053 443.747368 
L 686.576842 443.747368 
z
" clip-path="url(#p7727f14442)" style="fill: #fde0c4; stroke: #d55b1a; stroke-width: 0.9; stroke-linejoin: miter"/>
   </g>
   <g id="text_1">
    <!-- Stride 1 -->
    <g style="fill: #0e2a47" transform="translate(110.080818 42.304866) scale(0.15 -0.15)">
     <defs>
      <path id="DejaVuSans-Bold-53" d="M 3834 4519 
L 3834 3531 
Q 3450 3703 3084 3790 
Q 2719 3878 2394 3878 
Q 1963 3878 1756 3759 
Q 1550 3641 1550 3391 
Q 1550 3203 1689 3098 
Q 1828 2994 2194 2919 
L 2706 2816 
Q 3484 2659 3812 2340 
Q 4141 2022 4141 1434 
Q 4141 663 3683 286 
Q 3225 -91 2284 -91 
Q 1841 -91 1394 -6 
Q 947 78 500 244 
L 500 1259 
Q 947 1022 1364 901 
Q 1781 781 2169 781 
Q 2563 781 2772 912 
Q 2981 1044 2981 1288 
Q 2981 1506 2839 1625 
Q 2697 1744 2272 1838 
L 1806 1941 
Q 1106 2091 782 2419 
Q 459 2747 459 3303 
Q 459 4000 909 4375 
Q 1359 4750 2203 4750 
Q 2588 4750 2994 4692 
Q 3400 4634 3834 4519 
z
" transform="scale(0.015625)"/>
      <path id="DejaVuSans-Bold-74" d="M 1759 4494 
L 1759 3500 
L 2913 3500 
L 2913 2700 
L 1759 2700 
L 1759 1216 
Q 1759 972 1856 886 
Q 1953 800 2241 800 
L 2816 800 
L 2816 0 
L 1856 0 
Q 1194 0 917 276 
Q 641 553 641 1216 
L 641 2700 
L 84 2700 
L 84 3500 
L 641 3500 
L 641 4494 
L 1759 4494 
z
" transform="scale(0.015625)"/>
      <path id="DejaVuSans-Bold-72" d="M 3138 2547 
Q 2991 2616 2845 2648 
Q 2700 2681 2553 2681 
Q 2122 2681 1889 2404 
Q 1656 2128 1656 1613 
L 1656 0 
L 538 0 
L 538 3500 
L 1656 3500 
L 1656 2925 
Q 1872 3269 2151 3426 
Q 2431 3584 2822 3584 
Q 2878 3584 2943 3579 
Q 3009 3575 3134 3559 
L 3138 2547 
z
" transform="scale(0.015625)"/>
      <path id="DejaVuSans-Bold-69" d="M 538 3500 
L 1656 3500 
L 1656 0 
L 538 0 
L 538 3500 
z
M 538 4863 
L 1656 4863 
L 1656 3950 
L 538 3950 
L 538 4863 
z
" transform="scale(0.015625)"/>
      <path id="DejaVuSans-Bold-64" d="M 2919 2988 
L 2919 4863 
L 4044 4863 
L 4044 0 
L 2919 0 
L 2919 506 
Q 2688 197 2409 53 
Q 2131 -91 1766 -91 
Q 1119 -91 703 423 
Q 288 938 288 1747 
Q 288 2556 703 3070 
Q 1119 3584 1766 3584 
Q 2128 3584 2408 3439 
Q 2688 3294 2919 2988 
z
M 2181 722 
Q 2541 722 2730 984 
Q 2919 1247 2919 1747 
Q 2919 2247 2730 2509 
Q 2541 2772 2181 2772 
Q 1825 2772 1636 2509 
Q 1447 2247 1447 1747 
Q 1447 1247 1636 984 
Q 1825 722 2181 722 
z
" transform="scale(0.015625)"/>
      <path id="DejaVuSans-Bold-65" d="M 4031 1759 
L 4031 1441 
L 1416 1441 
Q 1456 1047 1700 850 
Q 1944 653 2381 653 
Q 2734 653 3104 758 
Q 3475 863 3866 1075 
L 3866 213 
Q 3469 63 3072 -14 
Q 2675 -91 2278 -91 
Q 1328 -91 801 392 
Q 275 875 275 1747 
Q 275 2603 792 3093 
Q 1309 3584 2216 3584 
Q 3041 3584 3536 3087 
Q 4031 2591 4031 1759 
z
M 2881 2131 
Q 2881 2450 2695 2645 
Q 2509 2841 2209 2841 
Q 1884 2841 1681 2658 
Q 1478 2475 1428 2131 
L 2881 2131 
z
" transform="scale(0.015625)"/>
      <path id="DejaVuSans-Bold-20" transform="scale(0.015625)"/>
      <path id="DejaVuSans-Bold-31" d="M 750 831 
L 1813 831 
L 1813 3847 
L 722 3622 
L 722 4441 
L 1806 4666 
L 2950 4666 
L 2950 831 
L 4013 831 
L 4013 0 
L 750 0 
L 750 831 
z
" transform="scale(0.015625)"/>
     </defs>
     <use xlink:href="#DejaVuSans-Bold-53"/>
     <use xlink:href="#DejaVuSans-Bold-74" x="72.021484"/>
     <use xlink:href="#DejaVuSans-Bold-72" x="119.824219"/>
     <use xlink:href="#DejaVuSans-Bold-69" x="169.140625"/>
     <use xlink:href="#DejaVuSans-Bold-64" x="203.417969"/>
     <use xlink:href="#DejaVuSans-Bold-65" x="275"/>
     <use xlink:href="#DejaVuSans-Bold-20" x="342.822266"/>
     <use xlink:href="#DejaVuSans-Bold-31" x="377.636719"/>
    </g>
    <!-- no padding -->
    <g style="fill: #0e2a47" transform="translate(96.073396 58.531702) scale(0.15 -0.15)">
     <defs>
      <path id="DejaVuSans-Bold-6e" d="M 4056 2131 
L 4056 0 
L 2931 0 
L 2931 347 
L 2931 1631 
Q 2931 2084 2911 2256 
Q 2891 2428 2841 2509 
Q 2775 2619 2662 2680 
Q 2550 2741 2406 2741 
Q 2056 2741 1856 2470 
Q 1656 2200 1656 1722 
L 1656 0 
L 538 0 
L 538 3500 
L 1656 3500 
L 1656 2988 
Q 1909 3294 2193 3439 
Q 2478 3584 2822 3584 
Q 3428 3584 3742 3212 
Q 4056 2841 4056 2131 
z
" transform="scale(0.015625)"/>
      <path id="DejaVuSans-Bold-6f" d="M 2203 2784 
Q 1831 2784 1636 2517 
Q 1441 2250 1441 1747 
Q 1441 1244 1636 976 
Q 1831 709 2203 709 
Q 2569 709 2762 976 
Q 2956 1244 2956 1747 
Q 2956 2250 2762 2517 
Q 2569 2784 2203 2784 
z
M 2203 3584 
Q 3106 3584 3614 3096 
Q 4122 2609 4122 1747 
Q 4122 884 3614 396 
Q 3106 -91 2203 -91 
Q 1297 -91 786 396 
Q 275 884 275 1747 
Q 275 2609 786 3096 
Q 1297 3584 2203 3584 
z
" transform="scale(0.015625)"/>
      <path id="DejaVuSans-Bold-70" d="M 1656 506 
L 1656 -1331 
L 538 -1331 
L 538 3500 
L 1656 3500 
L 1656 2988 
Q 1888 3294 2169 3439 
Q 2450 3584 2816 3584 
Q 3463 3584 3878 3070 
Q 4294 2556 4294 1747 
Q 4294 938 3878 423 
Q 3463 -91 2816 -91 
Q 2450 -91 2169 54 
Q 1888 200 1656 506 
z
M 2400 2772 
Q 2041 2772 1848 2508 
Q 1656 2244 1656 1747 
Q 1656 1250 1848 986 
Q 2041 722 2400 722 
Q 2759 722 2948 984 
Q 3138 1247 3138 1747 
Q 3138 2247 2948 2509 
Q 2759 2772 2400 2772 
z
" transform="scale(0.015625)"/>
      <path id="DejaVuSans-Bold-61" d="M 2106 1575 
Q 1756 1575 1579 1456 
Q 1403 1338 1403 1106 
Q 1403 894 1545 773 
Q 1688 653 1941 653 
Q 2256 653 2472 879 
Q 2688 1106 2688 1447 
L 2688 1575 
L 2106 1575 
z
M 3816 1997 
L 3816 0 
L 2688 0 
L 2688 519 
Q 2463 200 2181 54 
Q 1900 -91 1497 -91 
Q 953 -91 614 226 
Q 275 544 275 1050 
Q 275 1666 698 1953 
Q 1122 2241 2028 2241 
L 2688 2241 
L 2688 2328 
Q 2688 2594 2478 2717 
Q 2269 2841 1825 2841 
Q 1466 2841 1156 2769 
Q 847 2697 581 2553 
L 581 3406 
Q 941 3494 1303 3539 
Q 1666 3584 2028 3584 
Q 2975 3584 3395 3211 
Q 3816 2838 3816 1997 
z
" transform="scale(0.015625)"/>
      <path id="DejaVuSans-Bold-67" d="M 2919 594 
Q 2688 288 2409 144 
Q 2131 0 1766 0 
Q 1125 0 706 504 
Q 288 1009 288 1791 
Q 288 2575 706 3076 
Q 1125 3578 1766 3578 
Q 2131 3578 2409 3434 
Q 2688 3291 2919 2981 
L 2919 3500 
L 4044 3500 
L 4044 353 
Q 4044 -491 3511 -936 
Q 2978 -1381 1966 -1381 
Q 1638 -1381 1331 -1331 
Q 1025 -1281 716 -1178 
L 716 -306 
Q 1009 -475 1290 -558 
Q 1572 -641 1856 -641 
Q 2406 -641 2662 -400 
Q 2919 -159 2919 353 
L 2919 594 
z
M 2181 2772 
Q 1834 2772 1640 2515 
Q 1447 2259 1447 1791 
Q 1447 1309 1634 1061 
Q 1822 813 2181 813 
Q 2531 813 2725 1069 
Q 2919 1325 2919 1791 
Q 2919 2259 2725 2515 
Q 2531 2772 2181 2772 
z
" transform="scale(0.015625)"/>
     </defs>
     <use xlink:href="#DejaVuSans-Bold-6e"/>
     <use xlink:href="#DejaVuSans-Bold-6f" x="71.191406"/>
     <use xlink:href="#DejaVuSans-Bold-20" x="139.892578"/>
     <use xlink:href="#DejaVuSans-Bold-70" x="174.707031"/>
     <use xlink:href="#DejaVuSans-Bold-61" x="246.289062"/>
     <use xlink:href="#DejaVuSans-Bold-64" x="313.769531"/>
     <use xlink:href="#DejaVuSans-Bold-64" x="385.351562"/>
     <use xlink:href="#DejaVuSans-Bold-69" x="456.933594"/>
     <use xlink:href="#DejaVuSans-Bold-6e" x="491.210938"/>
     <use xlink:href="#DejaVuSans-Bold-67" x="562.402344"/>
    </g>
   </g>
   <g id="patch_142">
    <path d="M 75.410526 149.077895 
L 102.694737 149.077895 
L 102.694737 121.793684 
L 75.410526 121.793684 
z
" clip-path="url(#p7727f14442)" style="fill: #9bd3a4"/>
   </g>
   <g id="patch_143">
    <path d="M 102.694737 149.077895 
L 129.978947 149.077895 
L 129.978947 121.793684 
L 102.694737 121.793684 
z
" clip-path="url(#p7727f14442)" style="fill: #9bd3a4"/>
   </g>
   <g id="patch_144">
    <path d="M 129.978947 149.077895 
L 157.263158 149.077895 
L 157.263158 121.793684 
L 129.978947 121.793684 
z
" clip-path="url(#p7727f14442)" style="fill: #9bd3a4"/>
   </g>
   <g id="patch_145">
    <path d="M 75.410526 176.362105 
L 102.694737 176.362105 
L 102.694737 149.077895 
L 75.410526 149.077895 
z
" clip-path="url(#p7727f14442)" style="fill: #9bd3a4"/>
   </g>
   <g id="patch_146">
    <path d="M 102.694737 176.362105 
L 129.978947 176.362105 
L 129.978947 149.077895 
L 102.694737 149.077895 
z
" clip-path="url(#p7727f14442)" style="fill: #9bd3a4"/>
   </g>
   <g id="patch_147">
    <path d="M 129.978947 176.362105 
L 157.263158 176.362105 
L 157.263158 149.077895 
L 129.978947 149.077895 
z
" clip-path="url(#p7727f14442)" style="fill: #9bd3a4"/>
   </g>
   <g id="patch_148">
    <path d="M 75.410526 203.646316 
L 102.694737 203.646316 
L 102.694737 176.362105 
L 75.410526 176.362105 
z
" clip-path="url(#p7727f14442)" style="fill: #9bd3a4"/>
   </g>
   <g id="patch_149">
    <path d="M 102.694737 203.646316 
L 129.978947 203.646316 
L 129.978947 176.362105 
L 102.694737 176.362105 
z
" clip-path="url(#p7727f14442)" style="fill: #9bd3a4"/>
   </g>
   <g id="patch_150">
    <path d="M 129.978947 203.646316 
L 157.263158 203.646316 
L 157.263158 176.362105 
L 129.978947 176.362105 
z
" clip-path="url(#p7727f14442)" style="fill: #9bd3a4"/>
   </g>
   <g id="text_2">
    <!-- Input 5×5 -->
    <g style="fill: #0e2a47" transform="translate(111.006287 277.915021) scale(0.13 -0.13)">
     <defs>
      <path id="DejaVuSans-49" d="M 628 4666 
L 1259 4666 
L 1259 0 
L 628 0 
L 628 4666 
z
" transform="scale(0.015625)"/>
      <path id="DejaVuSans-6e" d="M 3513 2113 
L 3513 0 
L 2938 0 
L 2938 2094 
Q 2938 2591 2744 2837 
Q 2550 3084 2163 3084 
Q 1697 3084 1428 2787 
Q 1159 2491 1159 1978 
L 1159 0 
L 581 0 
L 581 3500 
L 1159 3500 
L 1159 2956 
Q 1366 3272 1645 3428 
Q 1925 3584 2291 3584 
Q 2894 3584 3203 3211 
Q 3513 2838 3513 2113 
z
" transform="scale(0.015625)"/>
      <path id="DejaVuSans-70" d="M 1159 525 
L 1159 -1331 
L 581 -1331 
L 581 3500 
L 1159 3500 
L 1159 2969 
Q 1341 3281 1617 3432 
Q 1894 3584 2278 3584 
Q 2916 3584 3314 3078 
Q 3713 2572 3713 1747 
Q 3713 922 3314 415 
Q 2916 -91 2278 -91 
Q 1894 -91 1617 61 
Q 1341 213 1159 525 
z
M 3116 1747 
Q 3116 2381 2855 2742 
Q 2594 3103 2138 3103 
Q 1681 3103 1420 2742 
Q 1159 2381 1159 1747 
Q 1159 1113 1420 752 
Q 1681 391 2138 391 
Q 2594 391 2855 752 
Q 3116 1113 3116 1747 
z
" transform="scale(0.015625)"/>
      <path id="DejaVuSans-75" d="M 544 1381 
L 544 3500 
L 1119 3500 
L 1119 1403 
Q 1119 906 1312 657 
Q 1506 409 1894 409 
Q 2359 409 2629 706 
Q 2900 1003 2900 1516 
L 2900 3500 
L 3475 3500 
L 3475 0 
L 2900 0 
L 2900 538 
Q 2691 219 2414 64 
Q 2138 -91 1772 -91 
Q 1169 -91 856 284 
Q 544 659 544 1381 
z
M 1991 3584 
L 1991 3584 
z
" transform="scale(0.015625)"/>
      <path id="DejaVuSans-74" d="M 1172 4494 
L 1172 3500 
L 2356 3500 
L 2356 3053 
L 1172 3053 
L 1172 1153 
Q 1172 725 1289 603 
Q 1406 481 1766 481 
L 2356 481 
L 2356 0 
L 1766 0 
Q 1100 0 847 248 
Q 594 497 594 1153 
L 594 3053 
L 172 3053 
L 172 3500 
L 594 3500 
L 594 4494 
L 1172 4494 
z
" transform="scale(0.015625)"/>
      <path id="DejaVuSans-20" transform="scale(0.015625)"/>
      <path id="DejaVuSans-35" d="M 691 4666 
L 3169 4666 
L 3169 4134 
L 1269 4134 
L 1269 2991 
Q 1406 3038 1543 3061 
Q 1681 3084 1819 3084 
Q 2600 3084 3056 2656 
Q 3513 2228 3513 1497 
Q 3513 744 3044 326 
Q 2575 -91 1722 -91 
Q 1428 -91 1123 -41 
Q 819 9 494 109 
L 494 744 
Q 775 591 1075 516 
Q 1375 441 1709 441 
Q 2250 441 2565 725 
Q 2881 1009 2881 1497 
Q 2881 1984 2565 2268 
Q 2250 2553 1709 2553 
Q 1456 2553 1204 2497 
Q 953 2441 691 2322 
L 691 4666 
z
" transform="scale(0.015625)"/>
      <path id="DejaVuSans-d7" d="M 4488 3438 
L 3059 2003 
L 4488 575 
L 4116 197 
L 2681 1631 
L 1247 197 
L 878 575 
L 2303 2003 
L 878 3438 
L 1247 3816 
L 2681 2381 
L 4116 3816 
L 4488 3438 
z
" transform="scale(0.015625)"/>
     </defs>
     <use xlink:href="#DejaVuSans-49"/>
     <use xlink:href="#DejaVuSans-6e" x="29.492188"/>
     <use xlink:href="#DejaVuSans-70" x="92.871094"/>
     <use xlink:href="#DejaVuSans-75" x="156.347656"/>
     <use xlink:href="#DejaVuSans-74" x="219.726562"/>
     <use xlink:href="#DejaVuSans-20" x="258.935547"/>
     <use xlink:href="#DejaVuSans-35" x="290.722656"/>
     <use xlink:href="#DejaVuSans-d7" x="354.345703"/>
     <use xlink:href="#DejaVuSans-35" x="438.134766"/>
    </g>
   </g>
   <g id="text_3">
    <!-- Output 3×3 -->
    <g style="fill: #0e2a47" transform="translate(105.258865 437.254811) scale(0.13 -0.13)">
     <defs>
      <path id="DejaVuSans-4f" d="M 2522 4238 
Q 1834 4238 1429 3725 
Q 1025 3213 1025 2328 
Q 1025 1447 1429 934 
Q 1834 422 2522 422 
Q 3209 422 3611 934 
Q 4013 1447 4013 2328 
Q 4013 3213 3611 3725 
Q 3209 4238 2522 4238 
z
M 2522 4750 
Q 3503 4750 4090 4092 
Q 4678 3434 4678 2328 
Q 4678 1225 4090 567 
Q 3503 -91 2522 -91 
Q 1538 -91 948 565 
Q 359 1222 359 2328 
Q 359 3434 948 4092 
Q 1538 4750 2522 4750 
z
" transform="scale(0.015625)"/>
      <path id="DejaVuSans-33" d="M 2597 2516 
Q 3050 2419 3304 2112 
Q 3559 1806 3559 1356 
Q 3559 666 3084 287 
Q 2609 -91 1734 -91 
Q 1441 -91 1130 -33 
Q 819 25 488 141 
L 488 750 
Q 750 597 1062 519 
Q 1375 441 1716 441 
Q 2309 441 2620 675 
Q 2931 909 2931 1356 
Q 2931 1769 2642 2001 
Q 2353 2234 1838 2234 
L 1294 2234 
L 1294 2753 
L 1863 2753 
Q 2328 2753 2575 2939 
Q 2822 3125 2822 3475 
Q 2822 3834 2567 4026 
Q 2313 4219 1838 4219 
Q 1578 4219 1281 4162 
Q 984 4106 628 3988 
L 628 4550 
Q 988 4650 1302 4700 
Q 1616 4750 1894 4750 
Q 2613 4750 3031 4423 
Q 3450 4097 3450 3541 
Q 3450 3153 3228 2886 
Q 3006 2619 2597 2516 
z
" transform="scale(0.015625)"/>
     </defs>
     <use xlink:href="#DejaVuSans-4f"/>
     <use xlink:href="#DejaVuSans-75" x="78.710938"/>
     <use xlink:href="#DejaVuSans-74" x="142.089844"/>
     <use xlink:href="#DejaVuSans-70" x="181.298828"/>
     <use xlink:href="#DejaVuSans-75" x="244.775391"/>
     <use xlink:href="#DejaVuSans-74" x="308.154297"/>
     <use xlink:href="#DejaVuSans-20" x="347.363281"/>
     <use xlink:href="#DejaVuSans-33" x="379.150391"/>
     <use xlink:href="#DejaVuSans-d7" x="442.773438"/>
     <use xlink:href="#DejaVuSans-33" x="526.5625"/>
    </g>
   </g>
   <g id="text_4">
    <!-- Stride 2 -->
    <g style="fill: #0e2a47" transform="translate(355.638713 42.304866) scale(0.15 -0.15)">
     <defs>
      <path id="DejaVuSans-Bold-32" d="M 1844 884 
L 3897 884 
L 3897 0 
L 506 0 
L 506 884 
L 2209 2388 
Q 2438 2594 2547 2791 
Q 2656 2988 2656 3200 
Q 2656 3528 2436 3728 
Q 2216 3928 1850 3928 
Q 1569 3928 1234 3808 
Q 900 3688 519 3450 
L 519 4475 
Q 925 4609 1322 4679 
Q 1719 4750 2100 4750 
Q 2938 4750 3402 4381 
Q 3866 4013 3866 3353 
Q 3866 2972 3669 2642 
Q 3472 2313 2841 1759 
L 1844 884 
z
" transform="scale(0.015625)"/>
     </defs>
     <use xlink:href="#DejaVuSans-Bold-53"/>
     <use xlink:href="#DejaVuSans-Bold-74" x="72.021484"/>
     <use xlink:href="#DejaVuSans-Bold-72" x="119.824219"/>
     <use xlink:href="#DejaVuSans-Bold-69" x="169.140625"/>
     <use xlink:href="#DejaVuSans-Bold-64" x="203.417969"/>
     <use xlink:href="#DejaVuSans-Bold-65" x="275"/>
     <use xlink:href="#DejaVuSans-Bold-20" x="342.822266"/>
     <use xlink:href="#DejaVuSans-Bold-32" x="377.636719"/>
    </g>
    <!-- no padding -->
    <g style="fill: #0e2a47" transform="translate(341.631291 58.531702) scale(0.15 -0.15)">
     <use xlink:href="#DejaVuSans-Bold-6e"/>
     <use xlink:href="#DejaVuSans-Bold-6f" x="71.191406"/>
     <use xlink:href="#DejaVuSans-Bold-20" x="139.892578"/>
     <use xlink:href="#DejaVuSans-Bold-70" x="174.707031"/>
     <use xlink:href="#DejaVuSans-Bold-61" x="246.289062"/>
     <use xlink:href="#DejaVuSans-Bold-64" x="313.769531"/>
     <use xlink:href="#DejaVuSans-Bold-64" x="385.351562"/>
     <use xlink:href="#DejaVuSans-Bold-69" x="456.933594"/>
     <use xlink:href="#DejaVuSans-Bold-6e" x="491.210938"/>
     <use xlink:href="#DejaVuSans-Bold-67" x="562.402344"/>
    </g>
   </g>
   <g id="patch_151">
    <path d="M 320.968421 149.077895 
L 348.252632 149.077895 
L 348.252632 121.793684 
L 320.968421 121.793684 
z
" clip-path="url(#p7727f14442)" style="fill: #9bd3a4"/>
   </g>
   <g id="patch_152">
    <path d="M 348.252632 149.077895 
L 375.536842 149.077895 
L 375.536842 121.793684 
L 348.252632 121.793684 
z
" clip-path="url(#p7727f14442)" style="fill: #9bd3a4"/>
   </g>
   <g id="patch_153">
    <path d="M 375.536842 149.077895 
L 402.821053 149.077895 
L 402.821053 121.793684 
L 375.536842 121.793684 
z
" clip-path="url(#p7727f14442)" style="fill: #9bd3a4"/>
   </g>
   <g id="patch_154">
    <path d="M 320.968421 176.362105 
L 348.252632 176.362105 
L 348.252632 149.077895 
L 320.968421 149.077895 
z
" clip-path="url(#p7727f14442)" style="fill: #9bd3a4"/>
   </g>
   <g id="patch_155">
    <path d="M 348.252632 176.362105 
L 375.536842 176.362105 
L 375.536842 149.077895 
L 348.252632 149.077895 
z
" clip-path="url(#p7727f14442)" style="fill: #9bd3a4"/>
   </g>
   <g id="patch_156">
    <path d="M 375.536842 176.362105 
L 402.821053 176.362105 
L 402.821053 149.077895 
L 375.536842 149.077895 
z
" clip-path="url(#p7727f14442)" style="fill: #9bd3a4"/>
   </g>
   <g id="patch_157">
    <path d="M 320.968421 203.646316 
L 348.252632 203.646316 
L 348.252632 176.362105 
L 320.968421 176.362105 
z
" clip-path="url(#p7727f14442)" style="fill: #9bd3a4"/>
   </g>
   <g id="patch_158">
    <path d="M 348.252632 203.646316 
L 375.536842 203.646316 
L 375.536842 176.362105 
L 348.252632 176.362105 
z
" clip-path="url(#p7727f14442)" style="fill: #9bd3a4"/>
   </g>
   <g id="patch_159">
    <path d="M 375.536842 203.646316 
L 402.821053 203.646316 
L 402.821053 176.362105 
L 375.536842 176.362105 
z
" clip-path="url(#p7727f14442)" style="fill: #9bd3a4"/>
   </g>
   <g id="text_5">
    <!-- Input 5×5 -->
    <g style="fill: #0e2a47" transform="translate(356.564182 277.915021) scale(0.13 -0.13)">
     <use xlink:href="#DejaVuSans-49"/>
     <use xlink:href="#DejaVuSans-6e" x="29.492188"/>
     <use xlink:href="#DejaVuSans-70" x="92.871094"/>
     <use xlink:href="#DejaVuSans-75" x="156.347656"/>
     <use xlink:href="#DejaVuSans-74" x="219.726562"/>
     <use xlink:href="#DejaVuSans-20" x="258.935547"/>
     <use xlink:href="#DejaVuSans-35" x="290.722656"/>
     <use xlink:href="#DejaVuSans-d7" x="354.345703"/>
     <use xlink:href="#DejaVuSans-35" x="438.134766"/>
    </g>
   </g>
   <g id="text_6">
    <!-- Output 2×2 -->
    <g style="fill: #0e2a47" transform="translate(350.81676 409.9706) scale(0.13 -0.13)">
     <defs>
      <path id="DejaVuSans-32" d="M 1228 531 
L 3431 531 
L 3431 0 
L 469 0 
L 469 531 
Q 828 903 1448 1529 
Q 2069 2156 2228 2338 
Q 2531 2678 2651 2914 
Q 2772 3150 2772 3378 
Q 2772 3750 2511 3984 
Q 2250 4219 1831 4219 
Q 1534 4219 1204 4116 
Q 875 4013 500 3803 
L 500 4441 
Q 881 4594 1212 4672 
Q 1544 4750 1819 4750 
Q 2544 4750 2975 4387 
Q 3406 4025 3406 3419 
Q 3406 3131 3298 2873 
Q 3191 2616 2906 2266 
Q 2828 2175 2409 1742 
Q 1991 1309 1228 531 
z
" transform="scale(0.015625)"/>
     </defs>
     <use xlink:href="#DejaVuSans-4f"/>
     <use xlink:href="#DejaVuSans-75" x="78.710938"/>
     <use xlink:href="#DejaVuSans-74" x="142.089844"/>
     <use xlink:href="#DejaVuSans-70" x="181.298828"/>
     <use xlink:href="#DejaVuSans-75" x="244.775391"/>
     <use xlink:href="#DejaVuSans-74" x="308.154297"/>
     <use xlink:href="#DejaVuSans-20" x="347.363281"/>
     <use xlink:href="#DejaVuSans-32" x="379.150391"/>
     <use xlink:href="#DejaVuSans-d7" x="442.773438"/>
     <use xlink:href="#DejaVuSans-32" x="526.5625"/>
    </g>
   </g>
   <g id="text_7">
    <!-- Stride 1, P=1 -->
    <g style="fill: #0e2a47" transform="translate(589.650136 42.422054) scale(0.15 -0.15)">
     <defs>
      <path id="DejaVuSans-Bold-2c" d="M 653 1209 
L 1778 1209 
L 1778 256 
L 1006 -909 
L 341 -909 
L 653 256 
L 653 1209 
z
" transform="scale(0.015625)"/>
      <path id="DejaVuSans-Bold-50" d="M 588 4666 
L 2584 4666 
Q 3475 4666 3951 4270 
Q 4428 3875 4428 3144 
Q 4428 2409 3951 2014 
Q 3475 1619 2584 1619 
L 1791 1619 
L 1791 0 
L 588 0 
L 588 4666 
z
M 1791 3794 
L 1791 2491 
L 2456 2491 
Q 2806 2491 2997 2661 
Q 3188 2831 3188 3144 
Q 3188 3456 2997 3625 
Q 2806 3794 2456 3794 
L 1791 3794 
z
" transform="scale(0.015625)"/>
      <path id="DejaVuSans-Bold-3d" d="M 678 3084 
L 4684 3084 
L 4684 2350 
L 678 2350 
L 678 3084 
z
M 678 1663 
L 4684 1663 
L 4684 922 
L 678 922 
L 678 1663 
z
" transform="scale(0.015625)"/>
     </defs>
     <use xlink:href="#DejaVuSans-Bold-53"/>
     <use xlink:href="#DejaVuSans-Bold-74" x="72.021484"/>
     <use xlink:href="#DejaVuSans-Bold-72" x="119.824219"/>
     <use xlink:href="#DejaVuSans-Bold-69" x="169.140625"/>
     <use xlink:href="#DejaVuSans-Bold-64" x="203.417969"/>
     <use xlink:href="#DejaVuSans-Bold-65" x="275"/>
     <use xlink:href="#DejaVuSans-Bold-20" x="342.822266"/>
     <use xlink:href="#DejaVuSans-Bold-31" x="377.636719"/>
     <use xlink:href="#DejaVuSans-Bold-2c" x="447.216797"/>
     <use xlink:href="#DejaVuSans-Bold-20" x="485.205078"/>
     <use xlink:href="#DejaVuSans-Bold-50" x="520.019531"/>
     <use xlink:href="#DejaVuSans-Bold-3d" x="593.310547"/>
     <use xlink:href="#DejaVuSans-Bold-31" x="677.099609"/>
    </g>
    <!-- (same size) -->
    <g style="fill: #0e2a47" transform="translate(597.269667 58.64889) scale(0.15 -0.15)">
     <defs>
      <path id="DejaVuSans-Bold-28" d="M 2413 -844 
L 1484 -844 
Q 1006 -72 778 623 
Q 550 1319 550 2003 
Q 550 2688 779 3389 
Q 1009 4091 1484 4856 
L 2413 4856 
Q 2013 4116 1813 3408 
Q 1613 2700 1613 2009 
Q 1613 1319 1811 609 
Q 2009 -100 2413 -844 
z
" transform="scale(0.015625)"/>
      <path id="DejaVuSans-Bold-73" d="M 3272 3391 
L 3272 2541 
Q 2913 2691 2578 2766 
Q 2244 2841 1947 2841 
Q 1628 2841 1473 2761 
Q 1319 2681 1319 2516 
Q 1319 2381 1436 2309 
Q 1553 2238 1856 2203 
L 2053 2175 
Q 2913 2066 3209 1816 
Q 3506 1566 3506 1031 
Q 3506 472 3093 190 
Q 2681 -91 1863 -91 
Q 1516 -91 1145 -36 
Q 775 19 384 128 
L 384 978 
Q 719 816 1070 734 
Q 1422 653 1784 653 
Q 2113 653 2278 743 
Q 2444 834 2444 1013 
Q 2444 1163 2330 1236 
Q 2216 1309 1875 1350 
L 1678 1375 
Q 931 1469 631 1722 
Q 331 1975 331 2491 
Q 331 3047 712 3315 
Q 1094 3584 1881 3584 
Q 2191 3584 2531 3537 
Q 2872 3491 3272 3391 
z
" transform="scale(0.015625)"/>
      <path id="DejaVuSans-Bold-6d" d="M 3781 2919 
Q 3994 3244 4286 3414 
Q 4578 3584 4928 3584 
Q 5531 3584 5847 3212 
Q 6163 2841 6163 2131 
L 6163 0 
L 5038 0 
L 5038 1825 
Q 5041 1866 5042 1909 
Q 5044 1953 5044 2034 
Q 5044 2406 4934 2573 
Q 4825 2741 4581 2741 
Q 4263 2741 4089 2478 
Q 3916 2216 3909 1719 
L 3909 0 
L 2784 0 
L 2784 1825 
Q 2784 2406 2684 2573 
Q 2584 2741 2328 2741 
Q 2006 2741 1831 2477 
Q 1656 2213 1656 1722 
L 1656 0 
L 531 0 
L 531 3500 
L 1656 3500 
L 1656 2988 
Q 1863 3284 2130 3434 
Q 2397 3584 2719 3584 
Q 3081 3584 3359 3409 
Q 3638 3234 3781 2919 
z
" transform="scale(0.015625)"/>
      <path id="DejaVuSans-Bold-7a" d="M 366 3500 
L 3419 3500 
L 3419 2719 
L 1575 800 
L 3419 800 
L 3419 0 
L 288 0 
L 288 781 
L 2131 2700 
L 366 2700 
L 366 3500 
z
" transform="scale(0.015625)"/>
      <path id="DejaVuSans-Bold-29" d="M 513 -844 
Q 913 -100 1113 609 
Q 1313 1319 1313 2009 
Q 1313 2700 1113 3408 
Q 913 4116 513 4856 
L 1441 4856 
Q 1916 4091 2145 3389 
Q 2375 2688 2375 2003 
Q 2375 1319 2147 623 
Q 1919 -72 1441 -844 
L 513 -844 
z
" transform="scale(0.015625)"/>
     </defs>
     <use xlink:href="#DejaVuSans-Bold-28"/>
     <use xlink:href="#DejaVuSans-Bold-73" x="45.703125"/>
     <use xlink:href="#DejaVuSans-Bold-61" x="105.224609"/>
     <use xlink:href="#DejaVuSans-Bold-6d" x="172.705078"/>
     <use xlink:href="#DejaVuSans-Bold-65" x="276.904297"/>
     <use xlink:href="#DejaVuSans-Bold-20" x="344.726562"/>
     <use xlink:href="#DejaVuSans-Bold-73" x="379.541016"/>
     <use xlink:href="#DejaVuSans-Bold-69" x="439.0625"/>
     <use xlink:href="#DejaVuSans-Bold-7a" x="473.339844"/>
     <use xlink:href="#DejaVuSans-Bold-65" x="531.542969"/>
     <use xlink:href="#DejaVuSans-Bold-29" x="599.365234"/>
    </g>
   </g>
   <g id="text_8">
    <!-- 0 -->
    <g style="fill: #c0392b" transform="translate(560.29852 83.902681) scale(0.11 -0.11)">
     <defs>
      <path id="DejaVuSans-30" d="M 2034 4250 
Q 1547 4250 1301 3770 
Q 1056 3291 1056 2328 
Q 1056 1369 1301 889 
Q 1547 409 2034 409 
Q 2525 409 2770 889 
Q 3016 1369 3016 2328 
Q 3016 3291 2770 3770 
Q 2525 4250 2034 4250 
z
M 2034 4750 
Q 2819 4750 3233 4129 
Q 3647 3509 3647 2328 
Q 3647 1150 3233 529 
Q 2819 -91 2034 -91 
Q 1250 -91 836 529 
Q 422 1150 422 2328 
Q 422 3509 836 4129 
Q 1250 4750 2034 4750 
z
" transform="scale(0.015625)"/>
     </defs>
     <use xlink:href="#DejaVuSans-30"/>
    </g>
   </g>
   <g id="text_9">
    <!-- 0 -->
    <g style="fill: #c0392b" transform="translate(587.58273 83.902681) scale(0.11 -0.11)">
     <use xlink:href="#DejaVuSans-30"/>
    </g>
   </g>
   <g id="text_10">
    <!-- 0 -->
    <g style="fill: #c0392b" transform="translate(614.866941 83.902681) scale(0.11 -0.11)">
     <use xlink:href="#DejaVuSans-30"/>
    </g>
   </g>
   <g id="text_11">
    <!-- 0 -->
    <g style="fill: #c0392b" transform="translate(642.151151 83.902681) scale(0.11 -0.11)">
     <use xlink:href="#DejaVuSans-30"/>
    </g>
   </g>
   <g id="text_12">
    <!-- 0 -->
    <g style="fill: #c0392b" transform="translate(669.435362 83.902681) scale(0.11 -0.11)">
     <use xlink:href="#DejaVuSans-30"/>
    </g>
   </g>
   <g id="text_13">
    <!-- 0 -->
    <g style="fill: #c0392b" transform="translate(696.719572 83.902681) scale(0.11 -0.11)">
     <use xlink:href="#DejaVuSans-30"/>
    </g>
   </g>
   <g id="text_14">
    <!-- 0 -->
    <g style="fill: #c0392b" transform="translate(724.003783 83.902681) scale(0.11 -0.11)">
     <use xlink:href="#DejaVuSans-30"/>
    </g>
   </g>
   <g id="text_15">
    <!-- 0 -->
    <g style="fill: #c0392b" transform="translate(560.29852 111.186891) scale(0.11 -0.11)">
     <use xlink:href="#DejaVuSans-30"/>
    </g>
   </g>
   <g id="text_16">
    <!-- 0 -->
    <g style="fill: #c0392b" transform="translate(724.003783 111.186891) scale(0.11 -0.11)">
     <use xlink:href="#DejaVuSans-30"/>
    </g>
   </g>
   <g id="text_17">
    <!-- 0 -->
    <g style="fill: #c0392b" transform="translate(560.29852 138.471102) scale(0.11 -0.11)">
     <use xlink:href="#DejaVuSans-30"/>
    </g>
   </g>
   <g id="text_18">
    <!-- 0 -->
    <g style="fill: #c0392b" transform="translate(724.003783 138.471102) scale(0.11 -0.11)">
     <use xlink:href="#DejaVuSans-30"/>
    </g>
   </g>
   <g id="text_19">
    <!-- 0 -->
    <g style="fill: #c0392b" transform="translate(560.29852 165.755313) scale(0.11 -0.11)">
     <use xlink:href="#DejaVuSans-30"/>
    </g>
   </g>
   <g id="text_20">
    <!-- 0 -->
    <g style="fill: #c0392b" transform="translate(724.003783 165.755313) scale(0.11 -0.11)">
     <use xlink:href="#DejaVuSans-30"/>
    </g>
   </g>
   <g id="text_21">
    <!-- 0 -->
    <g style="fill: #c0392b" transform="translate(560.29852 193.039523) scale(0.11 -0.11)">
     <use xlink:href="#DejaVuSans-30"/>
    </g>
   </g>
   <g id="text_22">
    <!-- 0 -->
    <g style="fill: #c0392b" transform="translate(724.003783 193.039523) scale(0.11 -0.11)">
     <use xlink:href="#DejaVuSans-30"/>
    </g>
   </g>
   <g id="text_23">
    <!-- 0 -->
    <g style="fill: #c0392b" transform="translate(560.29852 220.323734) scale(0.11 -0.11)">
     <use xlink:href="#DejaVuSans-30"/>
    </g>
   </g>
   <g id="text_24">
    <!-- 0 -->
    <g style="fill: #c0392b" transform="translate(724.003783 220.323734) scale(0.11 -0.11)">
     <use xlink:href="#DejaVuSans-30"/>
    </g>
   </g>
   <g id="text_25">
    <!-- 0 -->
    <g style="fill: #c0392b" transform="translate(560.29852 247.607944) scale(0.11 -0.11)">
     <use xlink:href="#DejaVuSans-30"/>
    </g>
   </g>
   <g id="text_26">
    <!-- 0 -->
    <g style="fill: #c0392b" transform="translate(587.58273 247.607944) scale(0.11 -0.11)">
     <use xlink:href="#DejaVuSans-30"/>
    </g>
   </g>
   <g id="text_27">
    <!-- 0 -->
    <g style="fill: #c0392b" transform="translate(614.866941 247.607944) scale(0.11 -0.11)">
     <use xlink:href="#DejaVuSans-30"/>
    </g>
   </g>
   <g id="text_28">
    <!-- 0 -->
    <g style="fill: #c0392b" transform="translate(642.151151 247.607944) scale(0.11 -0.11)">
     <use xlink:href="#DejaVuSans-30"/>
    </g>
   </g>
   <g id="text_29">
    <!-- 0 -->
    <g style="fill: #c0392b" transform="translate(669.435362 247.607944) scale(0.11 -0.11)">
     <use xlink:href="#DejaVuSans-30"/>
    </g>
   </g>
   <g id="text_30">
    <!-- 0 -->
    <g style="fill: #c0392b" transform="translate(696.719572 247.607944) scale(0.11 -0.11)">
     <use xlink:href="#DejaVuSans-30"/>
    </g>
   </g>
   <g id="text_31">
    <!-- 0 -->
    <g style="fill: #c0392b" transform="translate(724.003783 247.607944) scale(0.11 -0.11)">
     <use xlink:href="#DejaVuSans-30"/>
    </g>
   </g>
   <g id="patch_160">
    <path d="M 577.44 121.793684 
L 604.724211 121.793684 
L 604.724211 94.509474 
L 577.44 94.509474 
z
" clip-path="url(#p7727f14442)" style="fill: #9bd3a4"/>
   </g>
   <g id="patch_161">
    <path d="M 604.724211 121.793684 
L 632.008421 121.793684 
L 632.008421 94.509474 
L 604.724211 94.509474 
z
" clip-path="url(#p7727f14442)" style="fill: #9bd3a4"/>
   </g>
   <g id="patch_162">
    <path d="M 632.008421 121.793684 
L 659.292632 121.793684 
L 659.292632 94.509474 
L 632.008421 94.509474 
z
" clip-path="url(#p7727f14442)" style="fill: #9bd3a4"/>
   </g>
   <g id="patch_163">
    <path d="M 577.44 149.077895 
L 604.724211 149.077895 
L 604.724211 121.793684 
L 577.44 121.793684 
z
" clip-path="url(#p7727f14442)" style="fill: #9bd3a4"/>
   </g>
   <g id="patch_164">
    <path d="M 604.724211 149.077895 
L 632.008421 149.077895 
L 632.008421 121.793684 
L 604.724211 121.793684 
z
" clip-path="url(#p7727f14442)" style="fill: #9bd3a4"/>
   </g>
   <g id="patch_165">
    <path d="M 632.008421 149.077895 
L 659.292632 149.077895 
L 659.292632 121.793684 
L 632.008421 121.793684 
z
" clip-path="url(#p7727f14442)" style="fill: #9bd3a4"/>
   </g>
   <g id="patch_166">
    <path d="M 577.44 176.362105 
L 604.724211 176.362105 
L 604.724211 149.077895 
L 577.44 149.077895 
z
" clip-path="url(#p7727f14442)" style="fill: #9bd3a4"/>
   </g>
   <g id="patch_167">
    <path d="M 604.724211 176.362105 
L 632.008421 176.362105 
L 632.008421 149.077895 
L 604.724211 149.077895 
z
" clip-path="url(#p7727f14442)" style="fill: #9bd3a4"/>
   </g>
   <g id="patch_168">
    <path d="M 632.008421 176.362105 
L 659.292632 176.362105 
L 659.292632 149.077895 
L 632.008421 149.077895 
z
" clip-path="url(#p7727f14442)" style="fill: #9bd3a4"/>
   </g>
   <g id="text_32">
    <!-- Input 5×5 → padded 7×7 -->
    <g style="fill: #0e2a47" transform="translate(563.184823 277.915021) scale(0.13 -0.13)">
     <defs>
      <path id="DejaVuSans-2192" d="M 5050 2147 
L 5050 1866 
L 3822 638 
L 3447 1013 
L 4175 1741 
L 366 1741 
L 366 2272 
L 4175 2272 
L 3447 3000 
L 3822 3375 
L 5050 2147 
z
" transform="scale(0.015625)"/>
      <path id="DejaVuSans-61" d="M 2194 1759 
Q 1497 1759 1228 1600 
Q 959 1441 959 1056 
Q 959 750 1161 570 
Q 1363 391 1709 391 
Q 2188 391 2477 730 
Q 2766 1069 2766 1631 
L 2766 1759 
L 2194 1759 
z
M 3341 1997 
L 3341 0 
L 2766 0 
L 2766 531 
Q 2569 213 2275 61 
Q 1981 -91 1556 -91 
Q 1019 -91 701 211 
Q 384 513 384 1019 
Q 384 1609 779 1909 
Q 1175 2209 1959 2209 
L 2766 2209 
L 2766 2266 
Q 2766 2663 2505 2880 
Q 2244 3097 1772 3097 
Q 1472 3097 1187 3025 
Q 903 2953 641 2809 
L 641 3341 
Q 956 3463 1253 3523 
Q 1550 3584 1831 3584 
Q 2591 3584 2966 3190 
Q 3341 2797 3341 1997 
z
" transform="scale(0.015625)"/>
      <path id="DejaVuSans-64" d="M 2906 2969 
L 2906 4863 
L 3481 4863 
L 3481 0 
L 2906 0 
L 2906 525 
Q 2725 213 2448 61 
Q 2172 -91 1784 -91 
Q 1150 -91 751 415 
Q 353 922 353 1747 
Q 353 2572 751 3078 
Q 1150 3584 1784 3584 
Q 2172 3584 2448 3432 
Q 2725 3281 2906 2969 
z
M 947 1747 
Q 947 1113 1208 752 
Q 1469 391 1925 391 
Q 2381 391 2643 752 
Q 2906 1113 2906 1747 
Q 2906 2381 2643 2742 
Q 2381 3103 1925 3103 
Q 1469 3103 1208 2742 
Q 947 2381 947 1747 
z
" transform="scale(0.015625)"/>
      <path id="DejaVuSans-65" d="M 3597 1894 
L 3597 1613 
L 953 1613 
Q 991 1019 1311 708 
Q 1631 397 2203 397 
Q 2534 397 2845 478 
Q 3156 559 3463 722 
L 3463 178 
Q 3153 47 2828 -22 
Q 2503 -91 2169 -91 
Q 1331 -91 842 396 
Q 353 884 353 1716 
Q 353 2575 817 3079 
Q 1281 3584 2069 3584 
Q 2775 3584 3186 3129 
Q 3597 2675 3597 1894 
z
M 3022 2063 
Q 3016 2534 2758 2815 
Q 2500 3097 2075 3097 
Q 1594 3097 1305 2825 
Q 1016 2553 972 2059 
L 3022 2063 
z
" transform="scale(0.015625)"/>
      <path id="DejaVuSans-37" d="M 525 4666 
L 3525 4666 
L 3525 4397 
L 1831 0 
L 1172 0 
L 2766 4134 
L 525 4134 
L 525 4666 
z
" transform="scale(0.015625)"/>
     </defs>
     <use xlink:href="#DejaVuSans-49"/>
     <use xlink:href="#DejaVuSans-6e" x="29.492188"/>
     <use xlink:href="#DejaVuSans-70" x="92.871094"/>
     <use xlink:href="#DejaVuSans-75" x="156.347656"/>
     <use xlink:href="#DejaVuSans-74" x="219.726562"/>
     <use xlink:href="#DejaVuSans-20" x="258.935547"/>
     <use xlink:href="#DejaVuSans-35" x="290.722656"/>
     <use xlink:href="#DejaVuSans-d7" x="354.345703"/>
     <use xlink:href="#DejaVuSans-35" x="438.134766"/>
     <use xlink:href="#DejaVuSans-20" x="501.757812"/>
     <use xlink:href="#DejaVuSans-2192" x="533.544922"/>
     <use xlink:href="#DejaVuSans-20" x="617.333984"/>
     <use xlink:href="#DejaVuSans-70" x="649.121094"/>
     <use xlink:href="#DejaVuSans-61" x="712.597656"/>
     <use xlink:href="#DejaVuSans-64" x="773.876953"/>
     <use xlink:href="#DejaVuSans-64" x="837.353516"/>
     <use xlink:href="#DejaVuSans-65" x="900.830078"/>
     <use xlink:href="#DejaVuSans-64" x="962.353516"/>
     <use xlink:href="#DejaVuSans-20" x="1025.830078"/>
     <use xlink:href="#DejaVuSans-37" x="1057.617188"/>
     <use xlink:href="#DejaVuSans-d7" x="1121.240234"/>
     <use xlink:href="#DejaVuSans-37" x="1205.029297"/>
    </g>
   </g>
   <g id="text_33">
    <!-- Output 5×5 -->
    <g style="fill: #0e2a47" transform="translate(607.288339 491.823232) scale(0.13 -0.13)">
     <use xlink:href="#DejaVuSans-4f"/>
     <use xlink:href="#DejaVuSans-75" x="78.710938"/>
     <use xlink:href="#DejaVuSans-74" x="142.089844"/>
     <use xlink:href="#DejaVuSans-70" x="181.298828"/>
     <use xlink:href="#DejaVuSans-75" x="244.775391"/>
     <use xlink:href="#DejaVuSans-74" x="308.154297"/>
     <use xlink:href="#DejaVuSans-20" x="347.363281"/>
     <use xlink:href="#DejaVuSans-35" x="379.150391"/>
     <use xlink:href="#DejaVuSans-d7" x="442.773438"/>
     <use xlink:href="#DejaVuSans-35" x="526.5625"/>
    </g>
   </g>
   <g id="patch_169">
    <path d="M 75.410526 203.646316 
L 157.263158 203.646316 
L 157.263158 121.793684 
L 75.410526 121.793684 
L 75.410526 203.646316 
z
" clip-path="url(#p7727f14442)" style="fill: none; stroke: #2f8f4f; stroke-width: 1.6; stroke-linejoin: miter"/>
   </g>
   <g id="patch_170">
    <path d="M 320.968421 203.646316 
L 402.821053 203.646316 
L 402.821053 121.793684 
L 320.968421 121.793684 
L 320.968421 203.646316 
z
" clip-path="url(#p7727f14442)" style="fill: none; stroke: #2f8f4f; stroke-width: 1.6; stroke-linejoin: miter"/>
   </g>
   <g id="patch_171">
    <path d="M 577.44 176.362105 
L 659.292632 176.362105 
L 659.292632 94.509474 
L 577.44 94.509474 
L 577.44 176.362105 
z
" clip-path="url(#p7727f14442)" style="fill: none; stroke: #2f8f4f; stroke-width: 1.6; stroke-linejoin: miter"/>
   </g>
  </g>
 </g>
 <defs>
  <clipPath id="p7727f14442">
   <rect x="7.2" y="7.2" width="791.242105" height="518.4"/>
  </clipPath>
 </defs>
</svg>
